STARTFONT 2.1
FONT grvfont
SIZE 14 75 75
FONTBOUNDINGBOX 8 14 0 -3
STARTPROPERTIES 3
FONT_DESCENT 3
FONT_ASCENT 11
DEFAULT_CHAR 255
ENDPROPERTIES
CHARS 256
STARTCHAR C0000
ENCODING 0
SWIDTH 666 0
DWIDTH 8 0
BBX 8 14 0 -3
BITMAP
00
00
00
00
00
00
00
00
00
00
00
00
00
00
ENDCHAR
STARTCHAR C0001
ENCODING 9786
SWIDTH 666 0
DWIDTH 8 0
BBX 8 14 0 -3
BITMAP
00
00
ff
81
a5
81
81
a5
99
81
ff
00
00
00
ENDCHAR
STARTCHAR C0002
ENCODING 9787
SWIDTH 666 0
DWIDTH 8 0
BBX 8 14 0 -3
BITMAP
00
00
7c
fe
d6
fe
fe
c6
ba
fe
fe
00
00
00
ENDCHAR
STARTCHAR C0003
ENCODING 9829
SWIDTH 666 0
DWIDTH 8 0
BBX 8 14 0 -3
BITMAP
00
00
00
6c
ee
fe
fe
fe
7c
38
10
00
00
00
ENDCHAR
STARTCHAR C0004
ENCODING 9830
SWIDTH 666 0
DWIDTH 8 0
BBX 8 14 0 -3
BITMAP
00
00
3c
7e
7e
ff
ff
ff
ff
ff
ff
7e
7e
3c
ENDCHAR
STARTCHAR C0005
ENCODING 9827
SWIDTH 666 0
DWIDTH 8 0
BBX 8 14 0 -3
BITMAP
00
00
00
10
38
10
6c
ee
6c
10
38
00
00
00
ENDCHAR
STARTCHAR C0006
ENCODING 9824
SWIDTH 666 0
DWIDTH 8 0
BBX 8 14 0 -3
BITMAP
00
00
10
38
7c
7c
fe
fe
6c
10
38
00
00
00
ENDCHAR
STARTCHAR C0007
ENCODING 8226
SWIDTH 666 0
DWIDTH 8 0
BBX 8 14 0 -3
BITMAP
00
00
00
00
00
3c
3c
3c
3c
00
00
00
00
00
ENDCHAR
STARTCHAR C0008
ENCODING 9688
SWIDTH 666 0
DWIDTH 8 0
BBX 8 14 0 -3
BITMAP
ff
ff
ff
ff
ff
c3
c3
c3
c3
ff
ff
ff
ff
ff
ENDCHAR
STARTCHAR C0009
ENCODING 9675
SWIDTH 666 0
DWIDTH 8 0
BBX 8 14 0 -3
BITMAP
00
00
00
00
7e
7e
66
66
7e
7e
00
00
00
00
ENDCHAR
STARTCHAR C000a
ENCODING 9689
SWIDTH 666 0
DWIDTH 8 0
BBX 8 14 0 -3
BITMAP
ff
ff
ff
ff
81
81
99
99
81
81
ff
ff
ff
ff
ENDCHAR
STARTCHAR C000b
ENCODING 9794
SWIDTH 666 0
DWIDTH 8 0
BBX 8 14 0 -3
BITMAP
00
00
0f
07
0d
18
fc
cc
cc
cc
fc
00
00
00
ENDCHAR
STARTCHAR C000c
ENCODING 9792
SWIDTH 666 0
DWIDTH 8 0
BBX 8 14 0 -3
BITMAP
00
00
7e
66
66
66
7e
18
7e
18
18
00
00
00
ENDCHAR
STARTCHAR C000d
ENCODING 9834
SWIDTH 666 0
DWIDTH 8 0
BBX 8 14 0 -3
BITMAP
00
00
1e
1a
1e
18
18
18
f8
f8
f8
00
00
00
ENDCHAR
STARTCHAR C000e
ENCODING 9835
SWIDTH 666 0
DWIDTH 8 0
BBX 8 14 0 -3
BITMAP
00
3e
36
3e
36
36
f6
f6
f6
1e
1e
1e
00
00
ENDCHAR
STARTCHAR C000f
ENCODING 9788
SWIDTH 666 0
DWIDTH 8 0
BBX 8 14 0 -3
BITMAP
00
18
db
7e
3c
24
24
3c
7e
db
18
00
00
00
ENDCHAR
STARTCHAR C0010
ENCODING 9654
SWIDTH 666 0
DWIDTH 8 0
BBX 8 14 0 -3
BITMAP
00
00
80
e0
f0
fc
fe
fc
f0
e0
80
00
00
00
ENDCHAR
STARTCHAR C0011
ENCODING 9664
SWIDTH 666 0
DWIDTH 8 0
BBX 8 14 0 -3
BITMAP
00
00
02
0e
3e
7e
fe
7e
3e
0e
02
00
00
00
ENDCHAR
STARTCHAR C0012
ENCODING 8597
SWIDTH 666 0
DWIDTH 8 0
BBX 8 14 0 -3
BITMAP
00
00
18
3c
7e
18
18
18
7e
3c
18
00
00
00
ENDCHAR
STARTCHAR C0013
ENCODING 8252
SWIDTH 666 0
DWIDTH 8 0
BBX 8 14 0 -3
BITMAP
00
00
66
66
66
66
66
66
00
66
66
00
00
00
ENDCHAR
STARTCHAR C0014
ENCODING 182
SWIDTH 666 0
DWIDTH 8 0
BBX 8 14 0 -3
BITMAP
00
00
ff
db
db
db
fb
1b
1b
1b
1b
00
00
00
ENDCHAR
STARTCHAR C0015
ENCODING 167
SWIDTH 666 0
DWIDTH 8 0
BBX 8 14 0 -3
BITMAP
00
fe
c0
c0
c0
fe
c6
c6
fe
06
06
06
fe
00
ENDCHAR
STARTCHAR C0016
ENCODING 9644
SWIDTH 666 0
DWIDTH 8 0
BBX 8 14 0 -3
BITMAP
00
00
00
00
00
00
00
00
fe
fe
fe
00
00
00
ENDCHAR
STARTCHAR C0017
ENCODING 8616
SWIDTH 666 0
DWIDTH 8 0
BBX 8 14 0 -3
BITMAP
00
00
18
3c
7e
18
18
7e
3c
18
7e
00
00
00
ENDCHAR
STARTCHAR C0018
ENCODING 8593
SWIDTH 666 0
DWIDTH 8 0
BBX 8 14 0 -3
BITMAP
00
00
18
3c
7e
18
18
18
18
18
18
00
00
00
ENDCHAR
STARTCHAR C0019
ENCODING 8595
SWIDTH 666 0
DWIDTH 8 0
BBX 8 14 0 -3
BITMAP
00
00
18
18
18
18
18
18
7e
3c
18
00
00
00
ENDCHAR
STARTCHAR C001a
ENCODING 8594
SWIDTH 666 0
DWIDTH 8 0
BBX 8 14 0 -3
BITMAP
00
00
00
00
0c
0e
ff
0e
0c
00
00
00
00
00
ENDCHAR
STARTCHAR C001b
ENCODING 8592
SWIDTH 666 0
DWIDTH 8 0
BBX 8 14 0 -3
BITMAP
00
00
00
00
30
70
fe
70
30
00
00
00
00
00
ENDCHAR
STARTCHAR C001c
ENCODING 8735
SWIDTH 666 0
DWIDTH 8 0
BBX 8 14 0 -3
BITMAP
00
00
00
00
00
c0
c0
c0
fe
00
00
00
00
00
ENDCHAR
STARTCHAR C001d
ENCODING 8596
SWIDTH 666 0
DWIDTH 8 0
BBX 8 14 0 -3
BITMAP
00
00
00
00
24
66
ff
66
24
00
00
00
00
00
ENDCHAR
STARTCHAR C001e
ENCODING 9650
SWIDTH 666 0
DWIDTH 8 0
BBX 8 14 0 -3
BITMAP
00
00
10
38
38
38
7c
7c
fe
fe
00
00
00
00
ENDCHAR
STARTCHAR C001f
ENCODING 9660
SWIDTH 666 0
DWIDTH 8 0
BBX 8 14 0 -3
BITMAP
00
00
fe
fe
7c
7c
7c
38
38
10
00
00
00
00
ENDCHAR
STARTCHAR C0020
ENCODING 32
SWIDTH 666 0
DWIDTH 8 0
BBX 8 14 0 -3
BITMAP
00
00
00
00
00
00
00
00
00
00
00
00
00
00
ENDCHAR
STARTCHAR C0021
ENCODING 33
SWIDTH 666 0
DWIDTH 8 0
BBX 8 14 0 -3
BITMAP
00
00
18
18
18
18
18
18
00
18
18
00
00
00
ENDCHAR
STARTCHAR C0022
ENCODING 34
SWIDTH 666 0
DWIDTH 8 0
BBX 8 14 0 -3
BITMAP
00
36
36
36
00
00
00
00
00
00
00
00
00
00
ENDCHAR
STARTCHAR C0023
ENCODING 35
SWIDTH 666 0
DWIDTH 8 0
BBX 8 14 0 -3
BITMAP
00
00
6c
6c
6c
fe
6c
6c
fe
6c
6c
00
00
00
ENDCHAR
STARTCHAR C0024
ENCODING 36
SWIDTH 666 0
DWIDTH 8 0
BBX 8 14 0 -3
BITMAP
00
18
18
fe
c0
c0
fe
06
06
06
fe
18
18
00
ENDCHAR
STARTCHAR C0025
ENCODING 37
SWIDTH 666 0
DWIDTH 8 0
BBX 8 14 0 -3
BITMAP
00
00
00
00
62
66
0c
18
30
66
c6
00
00
00
ENDCHAR
STARTCHAR C0026
ENCODING 38
SWIDTH 666 0
DWIDTH 8 0
BBX 8 14 0 -3
BITMAP
00
00
7c
6c
38
38
76
f6
ce
cc
f6
00
00
00
ENDCHAR
STARTCHAR C0027
ENCODING 39
SWIDTH 666 0
DWIDTH 8 0
BBX 8 14 0 -3
BITMAP
00
0c
0c
0c
00
00
00
00
00
00
00
00
00
00
ENDCHAR
STARTCHAR C0028
ENCODING 40
SWIDTH 666 0
DWIDTH 8 0
BBX 8 14 0 -3
BITMAP
00
00
38
30
30
30
30
30
30
30
38
00
00
00
ENDCHAR
STARTCHAR C0029
ENCODING 41
SWIDTH 666 0
DWIDTH 8 0
BBX 8 14 0 -3
BITMAP
00
00
1c
0c
0c
0c
0c
0c
0c
0c
1c
00
00
00
ENDCHAR
STARTCHAR C002a
ENCODING 42
SWIDTH 666 0
DWIDTH 8 0
BBX 8 14 0 -3
BITMAP
00
00
18
2c
46
83
46
3c
00
00
00
00
00
00
ENDCHAR
STARTCHAR C002b
ENCODING 43
SWIDTH 666 0
DWIDTH 8 0
BBX 8 14 0 -3
BITMAP
00
00
00
00
18
18
7e
18
18
00
00
00
00
00
ENDCHAR
STARTCHAR C002c
ENCODING 44
SWIDTH 666 0
DWIDTH 8 0
BBX 8 14 0 -3
BITMAP
00
00
00
00
00
00
00
00
00
0c
0c
18
00
00
ENDCHAR
STARTCHAR C002d
ENCODING 45
SWIDTH 666 0
DWIDTH 8 0
BBX 8 14 0 -3
BITMAP
00
00
00
00
00
00
fe
00
00
00
00
00
00
00
ENDCHAR
STARTCHAR C002e
ENCODING 46
SWIDTH 666 0
DWIDTH 8 0
BBX 8 14 0 -3
BITMAP
00
00
00
00
00
00
00
00
00
18
18
00
00
00
ENDCHAR
STARTCHAR C002f
ENCODING 47
SWIDTH 666 0
DWIDTH 8 0
BBX 8 14 0 -3
BITMAP
00
00
00
02
06
0c
18
30
60
c0
80
00
00
00
ENDCHAR
STARTCHAR C0030
ENCODING 48
SWIDTH 666 0
DWIDTH 8 0
BBX 8 14 0 -3
BITMAP
00
00
fe
c6
c6
c6
d6
c6
c6
c6
fe
00
00
00
ENDCHAR
STARTCHAR C0031
ENCODING 49
SWIDTH 666 0
DWIDTH 8 0
BBX 8 14 0 -3
BITMAP
00
00
38
18
18
18
18
18
18
18
18
00
00
00
ENDCHAR
STARTCHAR C0032
ENCODING 50
SWIDTH 666 0
DWIDTH 8 0
BBX 8 14 0 -3
BITMAP
00
00
fe
06
06
06
fe
c0
c0
c0
fe
00
00
00
ENDCHAR
STARTCHAR C0033
ENCODING 51
SWIDTH 666 0
DWIDTH 8 0
BBX 8 14 0 -3
BITMAP
00
00
fe
06
06
06
3e
06
06
06
fe
00
00
00
ENDCHAR
STARTCHAR C0034
ENCODING 52
SWIDTH 666 0
DWIDTH 8 0
BBX 8 14 0 -3
BITMAP
00
00
c6
c6
c6
c6
fe
06
06
06
06
00
00
00
ENDCHAR
STARTCHAR C0035
ENCODING 53
SWIDTH 666 0
DWIDTH 8 0
BBX 8 14 0 -3
BITMAP
00
00
fe
c0
c0
c0
fe
06
06
06
fe
00
00
00
ENDCHAR
STARTCHAR C0036
ENCODING 54
SWIDTH 666 0
DWIDTH 8 0
BBX 8 14 0 -3
BITMAP
00
00
fe
c0
c0
c0
fe
c6
c6
c6
fe
00
00
00
ENDCHAR
STARTCHAR C0037
ENCODING 55
SWIDTH 666 0
DWIDTH 8 0
BBX 8 14 0 -3
BITMAP
00
00
fe
06
06
06
06
06
06
06
06
00
00
00
ENDCHAR
STARTCHAR C0038
ENCODING 56
SWIDTH 666 0
DWIDTH 8 0
BBX 8 14 0 -3
BITMAP
00
00
fe
c6
c6
c6
fe
c6
c6
c6
fe
00
00
00
ENDCHAR
STARTCHAR C0039
ENCODING 57
SWIDTH 666 0
DWIDTH 8 0
BBX 8 14 0 -3
BITMAP
00
00
fe
c6
c6
c6
fe
06
06
06
fe
00
00
00
ENDCHAR
STARTCHAR C003a
ENCODING 58
SWIDTH 666 0
DWIDTH 8 0
BBX 8 14 0 -3
BITMAP
00
00
00
00
0c
0c
00
00
00
0c
0c
00
00
00
ENDCHAR
STARTCHAR C003b
ENCODING 59
SWIDTH 666 0
DWIDTH 8 0
BBX 8 14 0 -3
BITMAP
00
00
00
00
0c
0c
00
00
00
0c
0c
18
00
00
ENDCHAR
STARTCHAR C003c
ENCODING 60
SWIDTH 666 0
DWIDTH 8 0
BBX 8 14 0 -3
BITMAP
00
00
00
0c
18
30
60
30
18
0c
00
00
00
00
ENDCHAR
STARTCHAR C003d
ENCODING 61
SWIDTH 666 0
DWIDTH 8 0
BBX 8 14 0 -3
BITMAP
00
00
00
00
00
7c
00
7c
00
00
00
00
00
00
ENDCHAR
STARTCHAR C003e
ENCODING 62
SWIDTH 666 0
DWIDTH 8 0
BBX 8 14 0 -3
BITMAP
00
00
00
30
18
0c
06
0c
18
30
00
00
00
00
ENDCHAR
STARTCHAR C003f
ENCODING 63
SWIDTH 666 0
DWIDTH 8 0
BBX 8 14 0 -3
BITMAP
00
00
fe
c6
06
06
1e
18
00
18
18
00
00
00
ENDCHAR
STARTCHAR C0040
ENCODING 64
SWIDTH 666 0
DWIDTH 8 0
BBX 8 14 0 -3
BITMAP
00
00
fe
c6
c6
de
de
de
de
c0
fe
00
00
00
ENDCHAR
STARTCHAR C0041
ENCODING 65
SWIDTH 666 0
DWIDTH 8 0
BBX 8 14 0 -3
BITMAP
00
00
fe
c6
c6
c6
fe
c6
c6
c6
c6
00
00
00
ENDCHAR
STARTCHAR C0042
ENCODING 66
SWIDTH 666 0
DWIDTH 8 0
BBX 8 14 0 -3
BITMAP
00
00
fc
cc
cc
cc
fe
c6
c6
c6
fe
00
00
00
ENDCHAR
STARTCHAR C0043
ENCODING 67
SWIDTH 666 0
DWIDTH 8 0
BBX 8 14 0 -3
BITMAP
00
00
fe
c0
c0
c0
c0
c0
c0
c0
fe
00
00
00
ENDCHAR
STARTCHAR C0044
ENCODING 68
SWIDTH 666 0
DWIDTH 8 0
BBX 8 14 0 -3
BITMAP
00
00
fc
c6
c6
c6
c6
c6
c6
c6
fc
00
00
00
ENDCHAR
STARTCHAR C0045
ENCODING 69
SWIDTH 666 0
DWIDTH 8 0
BBX 8 14 0 -3
BITMAP
00
00
fe
c0
c0
c0
f8
c0
c0
c0
fe
00
00
00
ENDCHAR
STARTCHAR C0046
ENCODING 70
SWIDTH 666 0
DWIDTH 8 0
BBX 8 14 0 -3
BITMAP
00
00
fe
c0
c0
c0
f8
c0
c0
c0
c0
00
00
00
ENDCHAR
STARTCHAR C0047
ENCODING 71
SWIDTH 666 0
DWIDTH 8 0
BBX 8 14 0 -3
BITMAP
00
00
fe
c6
c0
c0
ce
c6
c6
c6
fe
00
00
00
ENDCHAR
STARTCHAR C0048
ENCODING 72
SWIDTH 666 0
DWIDTH 8 0
BBX 8 14 0 -3
BITMAP
00
00
c6
c6
c6
c6
fe
c6
c6
c6
c6
00
00
00
ENDCHAR
STARTCHAR C0049
ENCODING 73
SWIDTH 666 0
DWIDTH 8 0
BBX 8 14 0 -3
BITMAP
00
00
18
18
18
18
18
18
18
18
18
00
00
00
ENDCHAR
STARTCHAR C004a
ENCODING 74
SWIDTH 666 0
DWIDTH 8 0
BBX 8 14 0 -3
BITMAP
00
00
0c
0c
0c
0c
0c
0c
cc
cc
fc
00
00
00
ENDCHAR
STARTCHAR C004b
ENCODING 75
SWIDTH 666 0
DWIDTH 8 0
BBX 8 14 0 -3
BITMAP
00
00
c6
cc
d8
f0
e0
f0
d8
cc
c6
00
00
00
ENDCHAR
STARTCHAR C004c
ENCODING 76
SWIDTH 666 0
DWIDTH 8 0
BBX 8 14 0 -3
BITMAP
00
00
c0
c0
c0
c0
c0
c0
c0
c0
fe
00
00
00
ENDCHAR
STARTCHAR C004d
ENCODING 77
SWIDTH 666 0
DWIDTH 8 0
BBX 8 14 0 -3
BITMAP
00
00
c6
c6
ee
fe
d6
c6
c6
c6
c6
00
00
00
ENDCHAR
STARTCHAR C004e
ENCODING 78
SWIDTH 666 0
DWIDTH 8 0
BBX 8 14 0 -3
BITMAP
00
00
c6
e6
f6
de
ce
c6
c6
c6
c6
00
00
00
ENDCHAR
STARTCHAR C004f
ENCODING 79
SWIDTH 666 0
DWIDTH 8 0
BBX 8 14 0 -3
BITMAP
00
00
fe
c6
c6
c6
c6
c6
c6
c6
fe
00
00
00
ENDCHAR
STARTCHAR C0050
ENCODING 80
SWIDTH 666 0
DWIDTH 8 0
BBX 8 14 0 -3
BITMAP
00
00
fe
c6
c6
c6
fe
c0
c0
c0
c0
00
00
00
ENDCHAR
STARTCHAR C0051
ENCODING 81
SWIDTH 666 0
DWIDTH 8 0
BBX 8 14 0 -3
BITMAP
00
00
fe
c6
c6
c6
c6
c6
c6
d6
fe
06
00
00
ENDCHAR
STARTCHAR C0052
ENCODING 82
SWIDTH 666 0
DWIDTH 8 0
BBX 8 14 0 -3
BITMAP
00
00
fe
c6
c6
c6
fe
f0
d8
cc
c6
00
00
00
ENDCHAR
STARTCHAR C0053
ENCODING 83
SWIDTH 666 0
DWIDTH 8 0
BBX 8 14 0 -3
BITMAP
00
00
fe
c0
c0
c0
fe
06
06
06
fe
00
00
00
ENDCHAR
STARTCHAR C0054
ENCODING 84
SWIDTH 666 0
DWIDTH 8 0
BBX 8 14 0 -3
BITMAP
00
00
7e
18
18
18
18
18
18
18
18
00
00
00
ENDCHAR
STARTCHAR C0055
ENCODING 85
SWIDTH 666 0
DWIDTH 8 0
BBX 8 14 0 -3
BITMAP
00
00
c6
c6
c6
c6
c6
c6
c6
c6
fe
00
00
00
ENDCHAR
STARTCHAR C0056
ENCODING 86
SWIDTH 666 0
DWIDTH 8 0
BBX 8 14 0 -3
BITMAP
00
00
c6
c6
c6
c6
cc
d8
f0
e0
c0
00
00
00
ENDCHAR
STARTCHAR C0057
ENCODING 87
SWIDTH 666 0
DWIDTH 8 0
BBX 8 14 0 -3
BITMAP
00
00
c6
c6
c6
c6
d6
fe
ee
c6
c6
00
00
00
ENDCHAR
STARTCHAR C0058
ENCODING 88
SWIDTH 666 0
DWIDTH 8 0
BBX 8 14 0 -3
BITMAP
00
00
c6
c6
6c
38
38
38
6c
c6
c6
00
00
00
ENDCHAR
STARTCHAR C0059
ENCODING 89
SWIDTH 666 0
DWIDTH 8 0
BBX 8 14 0 -3
BITMAP
00
00
66
66
66
66
7e
18
18
18
18
00
00
00
ENDCHAR
STARTCHAR C005a
ENCODING 90
SWIDTH 666 0
DWIDTH 8 0
BBX 8 14 0 -3
BITMAP
00
00
fe
06
0c
18
30
60
c0
c0
fe
00
00
00
ENDCHAR
STARTCHAR C005b
ENCODING 91
SWIDTH 666 0
DWIDTH 8 0
BBX 8 14 0 -3
BITMAP
00
00
7c
60
60
60
60
60
60
60
7c
00
00
00
ENDCHAR
STARTCHAR C005c
ENCODING 92
SWIDTH 666 0
DWIDTH 8 0
BBX 8 14 0 -3
BITMAP
00
00
00
80
c0
60
30
18
0c
06
02
00
00
00
ENDCHAR
STARTCHAR C005d
ENCODING 93
SWIDTH 666 0
DWIDTH 8 0
BBX 8 14 0 -3
BITMAP
00
00
7c
0c
0c
0c
0c
0c
0c
0c
7c
00
00
00
ENDCHAR
STARTCHAR C005e
ENCODING 94
SWIDTH 666 0
DWIDTH 8 0
BBX 8 14 0 -3
BITMAP
00
10
38
6c
c6
00
00
00
00
00
00
00
00
00
ENDCHAR
STARTCHAR C005f
ENCODING 95
SWIDTH 666 0
DWIDTH 8 0
BBX 8 14 0 -3
BITMAP
00
00
00
00
00
00
00
00
00
00
00
00
00
ff
ENDCHAR
STARTCHAR C0060
ENCODING 96
SWIDTH 666 0
DWIDTH 8 0
BBX 8 14 0 -3
BITMAP
00
18
18
0c
00
00
00
00
00
00
00
00
00
00
ENDCHAR
STARTCHAR C0061
ENCODING 97
SWIDTH 666 0
DWIDTH 8 0
BBX 8 14 0 -3
BITMAP
00
00
00
00
00
fc
0c
fc
cc
cc
fc
00
00
00
ENDCHAR
STARTCHAR C0062
ENCODING 98
SWIDTH 666 0
DWIDTH 8 0
BBX 8 14 0 -3
BITMAP
00
00
c0
c0
c0
fe
c6
c6
c6
c6
fe
00
00
00
ENDCHAR
STARTCHAR C0063
ENCODING 99
SWIDTH 666 0
DWIDTH 8 0
BBX 8 14 0 -3
BITMAP
00
00
00
00
00
fe
c0
c0
c0
c0
fe
00
00
00
ENDCHAR
STARTCHAR C0064
ENCODING 100
SWIDTH 666 0
DWIDTH 8 0
BBX 8 14 0 -3
BITMAP
00
00
06
06
06
fe
c6
c6
c6
c6
fe
00
00
00
ENDCHAR
STARTCHAR C0065
ENCODING 101
SWIDTH 666 0
DWIDTH 8 0
BBX 8 14 0 -3
BITMAP
00
00
00
00
00
fe
c6
fe
c0
c0
fe
00
00
00
ENDCHAR
STARTCHAR C0066
ENCODING 102
SWIDTH 666 0
DWIDTH 8 0
BBX 8 14 0 -3
BITMAP
00
00
3c
30
30
30
78
30
30
30
30
00
00
00
ENDCHAR
STARTCHAR C0067
ENCODING 103
SWIDTH 666 0
DWIDTH 8 0
BBX 8 14 0 -3
BITMAP
00
00
00
00
00
fe
c6
c6
c6
fe
06
06
fe
00
ENDCHAR
STARTCHAR C0068
ENCODING 104
SWIDTH 666 0
DWIDTH 8 0
BBX 8 14 0 -3
BITMAP
00
00
c0
c0
c0
fe
c6
c6
c6
c6
c6
00
00
00
ENDCHAR
STARTCHAR C0069
ENCODING 105
SWIDTH 666 0
DWIDTH 8 0
BBX 8 14 0 -3
BITMAP
00
00
18
18
00
18
18
18
18
18
18
00
00
00
ENDCHAR
STARTCHAR C006a
ENCODING 106
SWIDTH 666 0
DWIDTH 8 0
BBX 8 14 0 -3
BITMAP
00
00
0c
0c
00
0c
0c
0c
0c
0c
0c
0c
1c
00
ENDCHAR
STARTCHAR C006b
ENCODING 107
SWIDTH 666 0
DWIDTH 8 0
BBX 8 14 0 -3
BITMAP
00
00
c0
c0
c0
cc
d8
f0
d8
cc
c6
00
00
00
ENDCHAR
STARTCHAR C006c
ENCODING 108
SWIDTH 666 0
DWIDTH 8 0
BBX 8 14 0 -3
BITMAP
00
00
38
18
18
18
18
18
18
18
18
00
00
00
ENDCHAR
STARTCHAR C006d
ENCODING 109
SWIDTH 666 0
DWIDTH 8 0
BBX 8 14 0 -3
BITMAP
00
00
00
00
00
fe
d6
d6
c6
c6
c6
00
00
00
ENDCHAR
STARTCHAR C006e
ENCODING 110
SWIDTH 666 0
DWIDTH 8 0
BBX 8 14 0 -3
BITMAP
00
00
00
00
00
fe
c6
c6
c6
c6
c6
00
00
00
ENDCHAR
STARTCHAR C006f
ENCODING 111
SWIDTH 666 0
DWIDTH 8 0
BBX 8 14 0 -3
BITMAP
00
00
00
00
00
fe
c6
c6
c6
c6
fe
00
00
00
ENDCHAR
STARTCHAR C0070
ENCODING 112
SWIDTH 666 0
DWIDTH 8 0
BBX 8 14 0 -3
BITMAP
00
00
00
00
00
fe
c6
c6
c6
fe
c0
c0
c0
00
ENDCHAR
STARTCHAR C0071
ENCODING 113
SWIDTH 666 0
DWIDTH 8 0
BBX 8 14 0 -3
BITMAP
00
00
00
00
00
fe
c6
c6
c6
fe
06
06
06
00
ENDCHAR
STARTCHAR C0072
ENCODING 114
SWIDTH 666 0
DWIDTH 8 0
BBX 8 14 0 -3
BITMAP
00
00
00
00
00
fc
c0
c0
c0
c0
c0
00
00
00
ENDCHAR
STARTCHAR C0073
ENCODING 115
SWIDTH 666 0
DWIDTH 8 0
BBX 8 14 0 -3
BITMAP
00
00
00
00
00
fe
c0
fe
06
06
fe
00
00
00
ENDCHAR
STARTCHAR C0074
ENCODING 116
SWIDTH 666 0
DWIDTH 8 0
BBX 8 14 0 -3
BITMAP
00
00
30
30
30
78
30
30
30
30
38
00
00
00
ENDCHAR
STARTCHAR C0075
ENCODING 117
SWIDTH 666 0
DWIDTH 8 0
BBX 8 14 0 -3
BITMAP
00
00
00
00
00
c6
c6
c6
c6
c6
fe
00
00
00
ENDCHAR
STARTCHAR C0076
ENCODING 118
SWIDTH 666 0
DWIDTH 8 0
BBX 8 14 0 -3
BITMAP
00
00
00
00
00
c6
cc
d8
f0
e0
c0
00
00
00
ENDCHAR
STARTCHAR C0077
ENCODING 119
SWIDTH 666 0
DWIDTH 8 0
BBX 8 14 0 -3
BITMAP
00
00
00
00
00
c6
c6
c6
d6
d6
fe
00
00
00
ENDCHAR
STARTCHAR C0078
ENCODING 120
SWIDTH 666 0
DWIDTH 8 0
BBX 8 14 0 -3
BITMAP
00
00
00
00
00
c6
6c
38
38
6c
c6
00
00
00
ENDCHAR
STARTCHAR C0079
ENCODING 121
SWIDTH 666 0
DWIDTH 8 0
BBX 8 14 0 -3
BITMAP
00
00
00
00
00
c6
c6
c6
c6
fe
06
06
fe
00
ENDCHAR
STARTCHAR C007a
ENCODING 122
SWIDTH 666 0
DWIDTH 8 0
BBX 8 14 0 -3
BITMAP
00
00
00
00
00
fe
0c
18
30
60
fe
00
00
00
ENDCHAR
STARTCHAR C007b
ENCODING 123
SWIDTH 666 0
DWIDTH 8 0
BBX 8 14 0 -3
BITMAP
00
00
01
03
06
06
06
06
06
06
03
01
00
00
ENDCHAR
STARTCHAR C007c
ENCODING 124
SWIDTH 666 0
DWIDTH 8 0
BBX 8 14 0 -3
BITMAP
00
fe
83
01
7c
c6
c0
c0
c6
7c
01
83
fe
00
ENDCHAR
STARTCHAR C007d
ENCODING 125
SWIDTH 666 0
DWIDTH 8 0
BBX 8 14 0 -3
BITMAP
00
00
00
80
c0
c0
c0
c0
c0
c0
80
00
00
00
ENDCHAR
STARTCHAR C007e
ENCODING 126
SWIDTH 666 0
DWIDTH 8 0
BBX 8 14 0 -3
BITMAP
00
00
f6
de
00
00
00
00
00
00
00
00
00
00
ENDCHAR
STARTCHAR C007f
ENCODING 8962
SWIDTH 666 0
DWIDTH 8 0
BBX 8 14 0 -3
BITMAP
00
00
00
00
10
38
38
6c
6c
fe
00
00
00
00
ENDCHAR
STARTCHAR C0080
ENCODING 199
SWIDTH 666 0
DWIDTH 8 0
BBX 8 14 0 -3
BITMAP
00
00
fe
c0
c0
c0
c0
c0
c0
fe
0c
0c
3c
00
ENDCHAR
STARTCHAR C0081
ENCODING 252
SWIDTH 666 0
DWIDTH 8 0
BBX 8 14 0 -3
BITMAP
00
00
c6
c6
00
c6
c6
c6
c6
c6
fe
00
00
00
ENDCHAR
STARTCHAR C0082
ENCODING 233
SWIDTH 666 0
DWIDTH 8 0
BBX 8 14 0 -3
BITMAP
00
0c
18
30
00
fe
c6
fe
c0
c0
fe
00
00
00
ENDCHAR
STARTCHAR C0083
ENCODING 226
SWIDTH 666 0
DWIDTH 8 0
BBX 8 14 0 -3
BITMAP
10
38
6c
c6
00
fe
06
fe
c6
c6
fe
00
00
00
ENDCHAR
STARTCHAR C0084
ENCODING 228
SWIDTH 666 0
DWIDTH 8 0
BBX 8 14 0 -3
BITMAP
00
00
6c
6c
00
fe
06
fe
c6
c6
fe
00
00
00
ENDCHAR
STARTCHAR C0085
ENCODING 224
SWIDTH 666 0
DWIDTH 8 0
BBX 8 14 0 -3
BITMAP
00
60
30
18
00
fe
06
fe
c6
c6
fe
00
00
00
ENDCHAR
STARTCHAR C0086
ENCODING 229
SWIDTH 666 0
DWIDTH 8 0
BBX 8 14 0 -3
BITMAP
00
7c
6c
7c
00
fe
06
fe
c6
c6
fe
00
00
00
ENDCHAR
STARTCHAR C0087
ENCODING 231
SWIDTH 666 0
DWIDTH 8 0
BBX 8 14 0 -3
BITMAP
00
00
00
00
fe
c0
c0
c0
c0
fe
0c
0c
3c
00
ENDCHAR
STARTCHAR C0088
ENCODING 234
SWIDTH 666 0
DWIDTH 8 0
BBX 8 14 0 -3
BITMAP
10
38
6c
c6
00
fe
c6
fe
c0
c0
fe
00
00
00
ENDCHAR
STARTCHAR C0089
ENCODING 235
SWIDTH 666 0
DWIDTH 8 0
BBX 8 14 0 -3
BITMAP
00
00
6c
6c
00
fe
c6
fe
c0
c0
fe
00
00
00
ENDCHAR
STARTCHAR C008a
ENCODING 232
SWIDTH 666 0
DWIDTH 8 0
BBX 8 14 0 -3
BITMAP
00
30
18
0c
00
fe
c6
fe
c0
c0
fe
00
00
00
ENDCHAR
STARTCHAR C008b
ENCODING 239
SWIDTH 666 0
DWIDTH 8 0
BBX 8 14 0 -3
BITMAP
00
00
66
66
00
18
18
18
18
18
18
00
00
00
ENDCHAR
STARTCHAR C008c
ENCODING 238
SWIDTH 666 0
DWIDTH 8 0
BBX 8 14 0 -3
BITMAP
00
18
3c
66
00
18
18
18
18
18
18
00
00
00
ENDCHAR
STARTCHAR C008d
ENCODING 236
SWIDTH 666 0
DWIDTH 8 0
BBX 8 14 0 -3
BITMAP
00
60
30
18
00
18
18
18
18
18
18
00
00
00
ENDCHAR
STARTCHAR C008e
ENCODING 196
SWIDTH 666 0
DWIDTH 8 0
BBX 8 14 0 -3
BITMAP
00
c6
c6
00
fe
c6
c6
fe
c6
c6
c6
00
00
00
ENDCHAR
STARTCHAR C008f
ENCODING 197
SWIDTH 666 0
DWIDTH 8 0
BBX 8 14 0 -3
BITMAP
7c
6c
7c
00
fe
c6
c6
fe
c6
c6
c6
00
00
00
ENDCHAR
STARTCHAR C0090
ENCODING 201
SWIDTH 666 0
DWIDTH 8 0
BBX 8 14 0 -3
BITMAP
0c
18
30
00
fe
c0
c0
f8
c0
c0
fe
00
00
00
ENDCHAR
STARTCHAR C0091
ENCODING 230
SWIDTH 666 0
DWIDTH 8 0
BBX 8 14 0 -3
BITMAP
00
00
00
00
ff
1b
1b
ff
d8
d8
ff
00
00
00
ENDCHAR
STARTCHAR C0092
ENCODING 198
SWIDTH 666 0
DWIDTH 8 0
BBX 8 14 0 -3
BITMAP
00
fe
d8
d8
d8
d8
fe
d8
d8
d8
de
00
00
00
ENDCHAR
STARTCHAR C0093
ENCODING 244
SWIDTH 666 0
DWIDTH 8 0
BBX 8 14 0 -3
BITMAP
10
38
6c
c6
00
fe
c6
c6
c6
c6
fe
00
00
00
ENDCHAR
STARTCHAR C0094
ENCODING 246
SWIDTH 666 0
DWIDTH 8 0
BBX 8 14 0 -3
BITMAP
00
00
6c
6c
00
fe
c6
c6
c6
c6
fe
00
00
00
ENDCHAR
STARTCHAR C0095
ENCODING 242
SWIDTH 666 0
DWIDTH 8 0
BBX 8 14 0 -3
BITMAP
00
30
18
0c
00
fe
c6
c6
c6
c6
fe
00
00
00
ENDCHAR
STARTCHAR C0096
ENCODING 251
SWIDTH 666 0
DWIDTH 8 0
BBX 8 14 0 -3
BITMAP
10
38
6c
c6
00
c6
c6
c6
c6
c6
fe
00
00
00
ENDCHAR
STARTCHAR C0097
ENCODING 249
SWIDTH 666 0
DWIDTH 8 0
BBX 8 14 0 -3
BITMAP
00
60
30
18
00
c6
c6
c6
c6
c6
fe
00
00
00
ENDCHAR
STARTCHAR C0098
ENCODING 255
SWIDTH 666 0
DWIDTH 8 0
BBX 8 14 0 -3
BITMAP
00
00
6c
6c
00
c6
c6
c6
c6
fe
06
06
fe
00
ENDCHAR
STARTCHAR C0099
ENCODING 214
SWIDTH 666 0
DWIDTH 8 0
BBX 8 14 0 -3
BITMAP
00
c6
c6
00
fe
c6
c6
c6
c6
c6
fe
00
00
00
ENDCHAR
STARTCHAR C009a
ENCODING 220
SWIDTH 666 0
DWIDTH 8 0
BBX 8 14 0 -3
BITMAP
00
c6
c6
00
c6
c6
c6
c6
c6
c6
fe
00
00
00
ENDCHAR
STARTCHAR C009b
ENCODING 162
SWIDTH 666 0
DWIDTH 8 0
BBX 8 14 0 -3
BITMAP
00
00
18
18
fe
c0
c0
c0
fe
18
18
00
00
00
ENDCHAR
STARTCHAR C009c
ENCODING 163
SWIDTH 666 0
DWIDTH 8 0
BBX 8 14 0 -3
BITMAP
00
00
7c
6c
60
60
f0
60
60
60
fe
00
00
00
ENDCHAR
STARTCHAR C009d
ENCODING 165
SWIDTH 666 0
DWIDTH 8 0
BBX 8 14 0 -3
BITMAP
00
00
66
66
7e
18
7e
18
3c
18
18
00
00
00
ENDCHAR
STARTCHAR C009e
ENCODING 8359
SWIDTH 666 0
DWIDTH 8 0
BBX 8 14 0 -3
BITMAP
00
fe
c6
fe
c0
cc
de
cc
cc
cc
ce
00
00
00
ENDCHAR
STARTCHAR C009f
ENCODING 402
SWIDTH 666 0
DWIDTH 8 0
BBX 8 14 0 -3
BITMAP
00
1c
18
18
18
18
3c
18
18
18
18
18
38
00
ENDCHAR
STARTCHAR C00a0
ENCODING 225
SWIDTH 666 0
DWIDTH 8 0
BBX 8 14 0 -3
BITMAP
00
0c
18
30
00
fe
06
fe
c6
c6
fe
00
00
00
ENDCHAR
STARTCHAR C00a1
ENCODING 237
SWIDTH 666 0
DWIDTH 8 0
BBX 8 14 0 -3
BITMAP
00
0c
18
30
00
18
18
18
18
18
18
00
00
00
ENDCHAR
STARTCHAR C00a2
ENCODING 243
SWIDTH 666 0
DWIDTH 8 0
BBX 8 14 0 -3
BITMAP
00
0c
18
30
00
fe
c6
c6
c6
c6
fe
00
00
00
ENDCHAR
STARTCHAR C00a3
ENCODING 250
SWIDTH 666 0
DWIDTH 8 0
BBX 8 14 0 -3
BITMAP
00
0c
18
30
00
c6
c6
c6
c6
c6
fe
00
00
00
ENDCHAR
STARTCHAR C00a4
ENCODING 241
SWIDTH 666 0
DWIDTH 8 0
BBX 8 14 0 -3
BITMAP
00
00
f6
de
00
fe
c6
c6
c6
c6
c6
00
00
00
ENDCHAR
STARTCHAR C00a5
ENCODING 209
SWIDTH 666 0
DWIDTH 8 0
BBX 8 14 0 -3
BITMAP
00
f6
de
00
c6
e6
f6
de
ce
c6
c6
00
00
00
ENDCHAR
STARTCHAR C00a6
ENCODING 170
SWIDTH 666 0
DWIDTH 8 0
BBX 8 14 0 -3
BITMAP
00
3e
66
66
3e
00
7e
00
00
00
00
00
00
00
ENDCHAR
STARTCHAR C00a7
ENCODING 186
SWIDTH 666 0
DWIDTH 8 0
BBX 8 14 0 -3
BITMAP
00
7e
66
66
7e
00
7e
00
00
00
00
00
00
00
ENDCHAR
STARTCHAR C00a8
ENCODING 191
SWIDTH 666 0
DWIDTH 8 0
BBX 8 14 0 -3
BITMAP
00
00
30
30
00
30
f0
c0
c0
c6
fe
00
00
00
ENDCHAR
STARTCHAR C00a9
ENCODING 8976
SWIDTH 666 0
DWIDTH 8 0
BBX 8 14 0 -3
BITMAP
00
00
00
00
00
00
7e
60
60
60
00
00
00
00
ENDCHAR
STARTCHAR C00aa
ENCODING 172
SWIDTH 666 0
DWIDTH 8 0
BBX 8 14 0 -3
BITMAP
00
00
00
00
00
00
7e
06
06
06
00
00
00
00
ENDCHAR
STARTCHAR C00ab
ENCODING 189
SWIDTH 666 0
DWIDTH 8 0
BBX 8 14 0 -3
BITMAP
00
38
18
18
18
00
7e
00
7e
06
7e
60
7e
00
ENDCHAR
STARTCHAR C00ac
ENCODING 188
SWIDTH 666 0
DWIDTH 8 0
BBX 8 14 0 -3
BITMAP
00
1c
0c
0c
0c
00
7e
00
66
66
7e
06
06
00
ENDCHAR
STARTCHAR C00ad
ENCODING 161
SWIDTH 666 0
DWIDTH 8 0
BBX 8 14 0 -3
BITMAP
00
00
18
18
00
18
18
18
18
18
18
00
00
00
ENDCHAR
STARTCHAR C00ae
ENCODING 171
SWIDTH 666 0
DWIDTH 8 0
BBX 8 14 0 -3
BITMAP
00
00
00
00
36
6c
d8
6c
36
00
00
00
00
00
ENDCHAR
STARTCHAR C00af
ENCODING 187
SWIDTH 666 0
DWIDTH 8 0
BBX 8 14 0 -3
BITMAP
00
00
00
00
d8
6c
36
6c
d8
00
00
00
00
00
ENDCHAR
STARTCHAR C00b0
ENCODING 9617
SWIDTH 666 0
DWIDTH 8 0
BBX 8 14 0 -3
BITMAP
11
44
10
44
11
44
01
44
11
40
11
04
11
44
ENDCHAR
STARTCHAR C00b1
ENCODING 9618
SWIDTH 666 0
DWIDTH 8 0
BBX 8 14 0 -3
BITMAP
44
aa
55
2a
55
aa
45
2a
55
aa
51
aa
15
aa
ENDCHAR
STARTCHAR C00b2
ENCODING 9619
SWIDTH 666 0
DWIDTH 8 0
BBX 8 14 0 -3
BITMAP
dd
77
dd
77
dd
77
dd
77
dd
77
dd
77
dd
77
ENDCHAR
STARTCHAR C00b3
ENCODING 9474
SWIDTH 666 0
DWIDTH 8 0
BBX 8 14 0 -3
BITMAP
18
18
18
18
18
18
18
18
18
18
18
18
18
18
ENDCHAR
STARTCHAR C00b4
ENCODING 9508
SWIDTH 666 0
DWIDTH 8 0
BBX 8 14 0 -3
BITMAP
18
18
18
18
18
18
18
f8
18
18
18
18
18
18
ENDCHAR
STARTCHAR C00b5
ENCODING 9569
SWIDTH 666 0
DWIDTH 8 0
BBX 8 14 0 -3
BITMAP
18
18
18
18
18
f8
18
f8
18
18
18
18
18
18
ENDCHAR
STARTCHAR C00b6
ENCODING 9570
SWIDTH 666 0
DWIDTH 8 0
BBX 8 14 0 -3
BITMAP
36
36
36
36
36
36
36
f6
36
36
36
36
36
36
ENDCHAR
STARTCHAR C00b7
ENCODING 9558
SWIDTH 666 0
DWIDTH 8 0
BBX 8 14 0 -3
BITMAP
00
00
00
00
00
00
00
fe
36
36
36
36
36
36
ENDCHAR
STARTCHAR C00b8
ENCODING 9557
SWIDTH 666 0
DWIDTH 8 0
BBX 8 14 0 -3
BITMAP
00
00
00
00
00
f8
18
f8
18
18
18
18
18
18
ENDCHAR
STARTCHAR C00b9
ENCODING 9571
SWIDTH 666 0
DWIDTH 8 0
BBX 8 14 0 -3
BITMAP
36
36
36
36
36
f6
06
f6
36
36
36
36
36
36
ENDCHAR
STARTCHAR C00ba
ENCODING 9553
SWIDTH 666 0
DWIDTH 8 0
BBX 8 14 0 -3
BITMAP
36
36
36
36
36
36
36
36
36
36
36
36
36
36
ENDCHAR
STARTCHAR C00bb
ENCODING 9559
SWIDTH 666 0
DWIDTH 8 0
BBX 8 14 0 -3
BITMAP
00
00
00
00
00
fe
06
f6
36
36
36
36
36
36
ENDCHAR
STARTCHAR C00bc
ENCODING 9565
SWIDTH 666 0
DWIDTH 8 0
BBX 8 14 0 -3
BITMAP
36
36
36
36
36
f6
06
fe
00
00
00
00
00
00
ENDCHAR
STARTCHAR C00bd
ENCODING 9564
SWIDTH 666 0
DWIDTH 8 0
BBX 8 14 0 -3
BITMAP
36
36
36
36
36
36
36
fe
00
00
00
00
00
00
ENDCHAR
STARTCHAR C00be
ENCODING 9563
SWIDTH 666 0
DWIDTH 8 0
BBX 8 14 0 -3
BITMAP
18
18
18
18
18
f8
18
f8
00
00
00
00
00
00
ENDCHAR
STARTCHAR C00bf
ENCODING 9488
SWIDTH 666 0
DWIDTH 8 0
BBX 8 14 0 -3
BITMAP
00
00
00
00
00
00
00
f8
18
18
18
18
18
18
ENDCHAR
STARTCHAR C00c0
ENCODING 9492
SWIDTH 666 0
DWIDTH 8 0
BBX 8 14 0 -3
BITMAP
18
18
18
18
18
18
18
1f
00
00
00
00
00
00
ENDCHAR
STARTCHAR C00c1
ENCODING 9524
SWIDTH 666 0
DWIDTH 8 0
BBX 8 14 0 -3
BITMAP
18
18
18
18
18
18
18
ff
00
00
00
00
00
00
ENDCHAR
STARTCHAR C00c2
ENCODING 9516
SWIDTH 666 0
DWIDTH 8 0
BBX 8 14 0 -3
BITMAP
00
00
00
00
00
00
00
ff
18
18
18
18
18
18
ENDCHAR
STARTCHAR C00c3
ENCODING 9500
SWIDTH 666 0
DWIDTH 8 0
BBX 8 14 0 -3
BITMAP
18
18
18
18
18
18
18
1f
18
18
18
18
18
18
ENDCHAR
STARTCHAR C00c4
ENCODING 9472
SWIDTH 666 0
DWIDTH 8 0
BBX 8 14 0 -3
BITMAP
00
00
00
00
00
00
00
ff
00
00
00
00
00
00
ENDCHAR
STARTCHAR C00c5
ENCODING 9532
SWIDTH 666 0
DWIDTH 8 0
BBX 8 14 0 -3
BITMAP
18
18
18
18
18
18
18
ff
18
18
18
18
18
18
ENDCHAR
STARTCHAR C00c6
ENCODING 9566
SWIDTH 666 0
DWIDTH 8 0
BBX 8 14 0 -3
BITMAP
18
18
18
18
18
1f
18
1f
18
18
18
18
18
18
ENDCHAR
STARTCHAR C00c7
ENCODING 9567
SWIDTH 666 0
DWIDTH 8 0
BBX 8 14 0 -3
BITMAP
36
36
36
36
36
36
36
37
36
36
36
36
36
36
ENDCHAR
STARTCHAR C00c8
ENCODING 9562
SWIDTH 666 0
DWIDTH 8 0
BBX 8 14 0 -3
BITMAP
36
36
36
36
36
37
30
3f
00
00
00
00
00
00
ENDCHAR
STARTCHAR C00c9
ENCODING 9556
SWIDTH 666 0
DWIDTH 8 0
BBX 8 14 0 -3
BITMAP
00
00
00
00
00
3f
30
37
36
36
36
36
36
36
ENDCHAR
STARTCHAR C00ca
ENCODING 9577
SWIDTH 666 0
DWIDTH 8 0
BBX 8 14 0 -3
BITMAP
36
36
36
36
36
f7
00
ff
00
00
00
00
00
00
ENDCHAR
STARTCHAR C00cb
ENCODING 9574
SWIDTH 666 0
DWIDTH 8 0
BBX 8 14 0 -3
BITMAP
00
00
00
00
00
ff
00
f7
36
36
36
36
36
36
ENDCHAR
STARTCHAR C00cc
ENCODING 9568
SWIDTH 666 0
DWIDTH 8 0
BBX 8 14 0 -3
BITMAP
36
36
36
36
36
37
30
37
36
36
36
36
36
36
ENDCHAR
STARTCHAR C00cd
ENCODING 9552
SWIDTH 666 0
DWIDTH 8 0
BBX 8 14 0 -3
BITMAP
00
00
00
00
00
ff
00
ff
00
00
00
00
00
00
ENDCHAR
STARTCHAR C00ce
ENCODING 9580
SWIDTH 666 0
DWIDTH 8 0
BBX 8 14 0 -3
BITMAP
36
36
36
36
36
f7
00
f7
36
36
36
36
36
36
ENDCHAR
STARTCHAR C00cf
ENCODING 9575
SWIDTH 666 0
DWIDTH 8 0
BBX 8 14 0 -3
BITMAP
18
18
18
18
18
ff
00
ff
00
00
00
00
00
00
ENDCHAR
STARTCHAR C00d0
ENCODING 9576
SWIDTH 666 0
DWIDTH 8 0
BBX 8 14 0 -3
BITMAP
36
36
36
36
36
36
36
ff
00
00
00
00
00
00
ENDCHAR
STARTCHAR C00d1
ENCODING 9572
SWIDTH 666 0
DWIDTH 8 0
BBX 8 14 0 -3
BITMAP
00
00
00
00
00
ff
00
ff
18
18
18
18
18
18
ENDCHAR
STARTCHAR C00d2
ENCODING 9573
SWIDTH 666 0
DWIDTH 8 0
BBX 8 14 0 -3
BITMAP
00
00
00
00
00
00
00
ff
36
36
36
36
36
36
ENDCHAR
STARTCHAR C00d3
ENCODING 9561
SWIDTH 666 0
DWIDTH 8 0
BBX 8 14 0 -3
BITMAP
36
36
36
36
36
36
36
3f
00
00
00
00
00
00
ENDCHAR
STARTCHAR C00d4
ENCODING 9560
SWIDTH 666 0
DWIDTH 8 0
BBX 8 14 0 -3
BITMAP
18
18
18
18
18
1f
18
1f
00
00
00
00
00
00
ENDCHAR
STARTCHAR C00d5
ENCODING 9554
SWIDTH 666 0
DWIDTH 8 0
BBX 8 14 0 -3
BITMAP
00
00
00
00
00
1f
18
1f
18
18
18
18
18
18
ENDCHAR
STARTCHAR C00d6
ENCODING 9555
SWIDTH 666 0
DWIDTH 8 0
BBX 8 14 0 -3
BITMAP
00
00
00
00
00
00
00
3f
36
36
36
36
36
36
ENDCHAR
STARTCHAR C00d7
ENCODING 9579
SWIDTH 666 0
DWIDTH 8 0
BBX 8 14 0 -3
BITMAP
36
36
36
36
36
36
36
ff
36
36
36
36
36
36
ENDCHAR
STARTCHAR C00d8
ENCODING 9578
SWIDTH 666 0
DWIDTH 8 0
BBX 8 14 0 -3
BITMAP
18
18
18
18
18
ff
18
ff
18
18
18
18
18
18
ENDCHAR
STARTCHAR C00d9
ENCODING 9496
SWIDTH 666 0
DWIDTH 8 0
BBX 8 14 0 -3
BITMAP
18
18
18
18
18
18
18
f8
00
00
00
00
00
00
ENDCHAR
STARTCHAR C00da
ENCODING 9484
SWIDTH 666 0
DWIDTH 8 0
BBX 8 14 0 -3
BITMAP
00
00
00
00
00
00
00
1f
18
18
18
18
18
18
ENDCHAR
STARTCHAR C00db
ENCODING 9608
SWIDTH 666 0
DWIDTH 8 0
BBX 8 14 0 -3
BITMAP
ff
ff
ff
ff
ff
ff
ff
ff
ff
ff
ff
ff
ff
ff
ENDCHAR
STARTCHAR C00dc
ENCODING 9604
SWIDTH 666 0
DWIDTH 8 0
BBX 8 14 0 -3
BITMAP
00
00
00
00
00
00
00
ff
ff
ff
ff
ff
ff
ff
ENDCHAR
STARTCHAR C00dd
ENCODING 9612
SWIDTH 666 0
DWIDTH 8 0
BBX 8 14 0 -3
BITMAP
f0
f0
f0
f0
f0
f0
f0
f0
f0
f0
f0
f0
f0
f0
ENDCHAR
STARTCHAR C00de
ENCODING 9616
SWIDTH 666 0
DWIDTH 8 0
BBX 8 14 0 -3
BITMAP
0f
0f
0f
0f
0f
0f
0f
0f
0f
0f
0f
0f
0f
0f
ENDCHAR
STARTCHAR C00df
ENCODING 9600
SWIDTH 666 0
DWIDTH 8 0
BBX 8 14 0 -3
BITMAP
ff
ff
ff
ff
ff
ff
ff
00
00
00
00
00
00
00
ENDCHAR
STARTCHAR C00e0
ENCODING 945
SWIDTH 666 0
DWIDTH 8 0
BBX 8 14 0 -3
BITMAP
00
00
00
00
fe
d8
d8
d8
d8
d8
fe
00
00
00
ENDCHAR
STARTCHAR C00e1
ENCODING 946
SWIDTH 666 0
DWIDTH 8 0
BBX 8 14 0 -3
BITMAP
00
00
00
00
fc
cc
cc
fe
c6
c6
fe
c0
c0
00
ENDCHAR
STARTCHAR C00e2
ENCODING 915
SWIDTH 666 0
DWIDTH 8 0
BBX 8 14 0 -3
BITMAP
00
00
fe
c0
c0
c0
c0
c0
c0
c0
c0
00
00
00
ENDCHAR
STARTCHAR C00e3
ENCODING 960
SWIDTH 666 0
DWIDTH 8 0
BBX 8 14 0 -3
BITMAP
00
00
00
00
00
fe
6c
6c
6c
6c
6c
00
00
00
ENDCHAR
STARTCHAR C00e4
ENCODING 931
SWIDTH 666 0
DWIDTH 8 0
BBX 8 14 0 -3
BITMAP
00
00
fe
c0
60
30
18
30
60
c0
fe
00
00
00
ENDCHAR
STARTCHAR C00e5
ENCODING 963
SWIDTH 666 0
DWIDTH 8 0
BBX 8 14 0 -3
BITMAP
22
08
1a
18
3c
7e
f3
fb
ff
ff
7e
3c
00
00
ENDCHAR
STARTCHAR C00e6
ENCODING 181
SWIDTH 666 0
DWIDTH 8 0
BBX 8 14 0 -3
BITMAP
00
00
00
00
c6
c6
c6
c6
fe
c0
c0
c0
00
00
ENDCHAR
STARTCHAR C00e7
ENCODING 964
SWIDTH 666 0
DWIDTH 8 0
BBX 8 14 0 -3
BITMAP
00
00
00
00
00
7e
18
18
18
18
18
00
00
00
ENDCHAR
STARTCHAR C00e8
ENCODING 934
SWIDTH 666 0
DWIDTH 8 0
BBX 8 14 0 -3
BITMAP
00
00
fe
38
fe
c6
c6
c6
fe
38
fe
00
00
00
ENDCHAR
STARTCHAR C00e9
ENCODING 920
SWIDTH 666 0
DWIDTH 8 0
BBX 8 14 0 -3
BITMAP
00
00
7c
ee
c6
c6
fe
c6
c6
ee
7c
00
00
00
ENDCHAR
STARTCHAR C00ea
ENCODING 937
SWIDTH 666 0
DWIDTH 8 0
BBX 8 14 0 -3
BITMAP
00
00
fe
c6
c6
c6
c6
ee
6c
6c
ee
00
00
00
ENDCHAR
STARTCHAR C00eb
ENCODING 948
SWIDTH 666 0
DWIDTH 8 0
BBX 8 14 0 -3
BITMAP
00
00
20
60
60
30
7c
ee
c6
ee
7c
00
00
00
ENDCHAR
STARTCHAR C00ec
ENCODING 8734
SWIDTH 666 0
DWIDTH 8 0
BBX 8 14 0 -3
BITMAP
00
00
00
00
00
3c
3c
3c
7e
00
00
00
00
00
ENDCHAR
STARTCHAR C00ed
ENCODING 966
SWIDTH 666 0
DWIDTH 8 0
BBX 8 14 0 -3
BITMAP
00
00
00
06
0c
fe
c6
c6
fe
60
c0
00
00
00
ENDCHAR
STARTCHAR C00ee
ENCODING 949
SWIDTH 666 0
DWIDTH 8 0
BBX 8 14 0 -3
BITMAP
00
00
18
30
60
60
78
60
60
30
18
00
00
00
ENDCHAR
STARTCHAR C00ef
ENCODING 8745
SWIDTH 666 0
DWIDTH 8 0
BBX 8 14 0 -3
BITMAP
00
00
fe
c6
c6
c6
c6
c6
c6
c6
c6
00
00
00
ENDCHAR
STARTCHAR C00f0
ENCODING 8801
SWIDTH 666 0
DWIDTH 8 0
BBX 8 14 0 -3
BITMAP
00
00
00
00
00
fe
00
fe
00
fe
00
00
00
00
ENDCHAR
STARTCHAR C00f1
ENCODING 177
SWIDTH 666 0
DWIDTH 8 0
BBX 8 14 0 -3
BITMAP
00
00
00
00
18
18
7e
18
18
00
7e
00
00
00
ENDCHAR
STARTCHAR C00f2
ENCODING 8805
SWIDTH 666 0
DWIDTH 8 0
BBX 8 14 0 -3
BITMAP
00
00
30
18
0c
06
0c
18
30
00
7e
00
00
00
ENDCHAR
STARTCHAR C00f3
ENCODING 8804
SWIDTH 666 0
DWIDTH 8 0
BBX 8 14 0 -3
BITMAP
00
00
0c
18
30
60
30
18
0c
00
7e
00
00
00
ENDCHAR
STARTCHAR C00f4
ENCODING 8992
SWIDTH 666 0
DWIDTH 8 0
BBX 8 14 0 -3
BITMAP
00
00
00
1e
1a
18
18
18
18
18
18
18
18
18
ENDCHAR
STARTCHAR C00f5
ENCODING 8993
SWIDTH 666 0
DWIDTH 8 0
BBX 8 14 0 -3
BITMAP
18
18
18
18
18
18
18
18
18
58
58
78
00
00
ENDCHAR
STARTCHAR C00f6
ENCODING 247
SWIDTH 666 0
DWIDTH 8 0
BBX 8 14 0 -3
BITMAP
00
00
00
18
18
00
7e
00
18
18
00
00
00
00
ENDCHAR
STARTCHAR C00f7
ENCODING 8776
SWIDTH 666 0
DWIDTH 8 0
BBX 8 14 0 -3
BITMAP
00
00
00
00
00
f6
de
00
f6
de
00
00
00
00
ENDCHAR
STARTCHAR C00f8
ENCODING 176
SWIDTH 666 0
DWIDTH 8 0
BBX 8 14 0 -3
BITMAP
00
00
fc
cc
cc
fc
00
00
00
00
00
00
00
00
ENDCHAR
STARTCHAR C00f9
ENCODING 8729
SWIDTH 666 0
DWIDTH 8 0
BBX 8 14 0 -3
BITMAP
00
00
00
00
00
00
18
18
00
00
00
00
00
00
ENDCHAR
STARTCHAR C00fa
ENCODING 183
SWIDTH 666 0
DWIDTH 8 0
BBX 8 14 0 -3
BITMAP
00
00
00
00
00
00
00
18
00
00
00
00
00
00
ENDCHAR
STARTCHAR C00fb
ENCODING 8730
SWIDTH 666 0
DWIDTH 8 0
BBX 8 14 0 -3
BITMAP
00
00
00
1f
18
18
18
18
d8
78
38
18
00
00
ENDCHAR
STARTCHAR C00fc
ENCODING 8319
SWIDTH 666 0
DWIDTH 8 0
BBX 8 14 0 -3
BITMAP
00
fc
cc
cc
cc
cc
00
00
00
00
00
00
00
00
ENDCHAR
STARTCHAR C00fd
ENCODING 178
SWIDTH 666 0
DWIDTH 8 0
BBX 8 14 0 -3
BITMAP
00
f8
18
f8
c0
f8
00
00
00
00
00
00
00
00
ENDCHAR
STARTCHAR C00fe
ENCODING 9632
SWIDTH 666 0
DWIDTH 8 0
BBX 8 14 0 -3
BITMAP
00
0c
18
18
7e
ff
ff
3f
1f
3f
ff
ff
7e
00
ENDCHAR
STARTCHAR C00ff
ENCODING 160
SWIDTH 666 0
DWIDTH 8 0
BBX 8 14 0 -3
BITMAP
00
00
00
00
00
00
00
00
00
00
00
00
00
00
ENDCHAR
ENDFONT
